<svg id="visual" viewBox="0 0 1600 200" width="1600" height="200" xmlns="http://www.w3.org/2000/svg" xmlns:xlink="http://www.w3.org/1999/xlink" version="1.1"><rect x="0" y="0" width="1600" height="200" fill="#031118"></rect><path d="M0 133L114 135L229 142L343 143L457 132L571 140L686 119L800 143L914 108L1029 141L1143 120L1257 146L1371 141L1486 132L1600 112L1600 201L1486 201L1371 201L1257 201L1143 201L1029 201L914 201L800 201L686 201L571 201L457 201L343 201L229 201L114 201L0 201Z" fill="#808080" stroke-linecap="square" stroke-linejoin="bevel"></path></svg>